# xmcd
#
# Track frame offsets:
#	150
#	18025
#	29937
#	40213
#	51760
#	62261
#	81311
#	91430
#	109888
#	123168
#	136211
#	147318
#	158867
#	172581
#	185187
#	198013
#	214965
#	230789
#	242718
#	254360
#	268104
#	280441
#	292284
#	308118
#	323301
#	333488
#	347624
#
# Disc length: 4783 seconds
# Revision: 0
# Processed by: cddbd v1.5.2PL0 Copyright (c) Steve Scherf et al.
# Submitted via: dBpowerAMP V12.0
#
DISCID=9512ad1b
DTITLE=B. B. KING - THE COMPLETE RPM - KENT RECORDING BOX, CD6
DYEAR=2015
DGENRE=Blues
TTITLE0=Hold That Train
TTITLE1=Understand
TTITLE2=Peace Of Mind
TTITLE3=Someday
TTITLE4=Bad Case Of Love
TTITLE5=You're Breaking My Heart
TTITLE6=Lonely
TTITLE7=My Sometime Baby
TTITLE8=Hully Gully Twist
TTITLE9=Gonna Miss You Around Here
TTITLE10=Mashed Potato Twist (aka 38th Street Blues)
TTITLE11=Three O'Clock Stomp
TTITLE12=Mashing The Popeye
TTITLE13=When My Heart Beats Like A Hammer (1962 version tk1)
TTITLE14=Going Down Slow
TTITLE15=3 O'Clock Blues
TTITLE16=Your Letter
TTITLE17=Christmas Celebration
TTITLE18=Easy Listening Blues
TTITLE19=Down Now
TTITLE20=Whole Lot Of Lovin'
TTITLE21=Trouble In Mind
TTITLE22=Long Nights (The Feeling They Call The Blues)
TTITLE23=The Road I Travel
TTITLE24=My Reward
TTITLE25=The Letter
TTITLE26=You Never Know
EXTD=
EXTT0=
EXTT1=
EXTT2=
EXTT3=
EXTT4=
EXTT5=
EXTT6=
EXTT7=
EXTT8=
EXTT9=
EXTT10=
EXTT11=
EXTT12=
EXTT13=
EXTT14=
EXTT15=
EXTT16=
EXTT17=
EXTT18=
EXTT19=
EXTT20=
EXTT21=
EXTT22=
EXTT23=
EXTT24=
EXTT25=
EXTT26=
PLAYORDER=
